<svg xmlns="http://www.w3.org/2000/svg" viewBox="0 0 512 512" role="img" aria-label="AI Job Tracker icon">
  <rect width="512" height="512" rx="108" fill="#0f766e"/>
  <path fill="#dff4ef" d="M128 144c0-17.7 14.3-32 32-32h192c17.7 0 32 14.3 32 32v224c0 17.7-14.3 32-32 32H160c-17.7 0-32-14.3-32-32V144Z"/>
  <path fill="#0f766e" d="M176 176h160v32H176v-32Zm0 64h160v32H176v-32Zm0 64h96v32h-96v-32Z"/>
  <circle cx="336" cy="320" r="56" fill="#14b8a6"/>
  <path fill="#fff" d="M324 347.5 299.5 323l17-17 7.5 7.5 31.5-31.5 17 17-48.5 48.5Z"/>
</svg>
